<?xml version="1.0" encoding="utf-8"?>
<!-- Generator: Adobe Illustrator 26.0.2, SVG Export Plug-In . SVG Version: 6.00 Build 0)  -->
<svg version="1.1" id="Layer_1" xmlns="http://www.w3.org/2000/svg" xmlns:xlink="http://www.w3.org/1999/xlink" x="0px" y="0px"
	 viewBox="0 0 135.6 26.7" style="enable-background:new 0 0 135.6 26.7;" xml:space="preserve">
<style type="text/css">
	.st0{fill:#394149;}
</style>
<path class="st0" d="M20.3,11.7c-0.8,0.8-1.2,1.8-1,2.9l0,0c0.2,2.4-1.6,4.5-4,4.7c-0.2,0-0.5,0-0.7,0l0,0c-2-0.2-3.8,1.3-4,3.3
	c-0.2,2,1.3,3.8,3.3,4c2,0.2,3.8-1.3,4-3.3c0-0.2,0-0.5,0-0.7l0,0c-0.2-2.4,1.6-4.5,4-4.7c0.2,0,0.5,0,0.7,0l0,0
	c2,0.2,3.8-1.3,4-3.3c0.2-2-1.3-3.8-3.3-4C22.2,10.5,21.1,10.9,20.3,11.7L20.3,11.7z"/>
<path class="st0" d="M13,17L13,17c2,0.2,3.8-1.3,4-3.3c0-0.2,0-0.5,0-0.7l0,0c-0.2-2.4,1.6-4.5,4-4.7c0.2,0,0.5,0,0.7,0l0,0
	c2,0.2,3.8-1.3,4-3.3s-1.3-3.8-3.3-4s-3.8,1.3-4,3.3c0,0.2,0,0.5,0,0.7l0,0c0.2,2.4-1.6,4.5-4,4.7c-0.2,0-0.5,0-0.7,0l0,0
	c-2-0.2-3.8,1.3-4,3.2c0,0.2,0,0.5,0,0.7l0,0c0.2,2.4-1.6,4.5-4,4.7c-0.2,0-0.5,0-0.7,0l0,0c-2-0.2-3.8,1.3-4,3.3s1.3,3.8,3.3,4
	s3.8-1.3,4-3.3c0-0.2,0-0.5,0-0.7l0,0c-0.2-2.4,1.6-4.5,4-4.7C12.5,16.9,12.7,16.9,13,17z"/>
<path class="st0" d="M6.3,15c0.8-0.8,1.2-1.8,1-2.9l0,0c-0.2-2.4,1.6-4.5,4-4.7c0.2,0,0.5,0,0.7,0l0,0C14,7.5,15.8,6,16,4
	c0.2-2-1.3-3.8-3.3-4c-2-0.2-3.8,1.3-4,3.3c0,0.2,0,0.5,0,0.7l0,0c0.2,2.4-1.6,4.5-4,4.7c-0.2,0-0.5,0-0.7,0l0,0C2,8.5,0.2,10,0,12
	c-0.2,2,1.3,3.8,3.3,4C4.4,16.1,5.5,15.7,6.3,15L6.3,15z"/>
<path class="st0" d="M37.2,5h3v14.5h-3V5z"/>
<path class="st0" d="M41.9,14.5c0-2.9,2.3-5.3,5.2-5.3s5.3,2.3,5.3,5.2s-2.3,5.3-5.2,5.3c0,0,0,0,0,0C44.3,19.7,41.9,17.5,41.9,14.5
	C41.9,14.6,41.9,14.5,41.9,14.5z M49.4,14.5c0-1.3-1.1-2.2-2.3-2.2c-1.3,0-2.2,1.1-2.2,2.3c0,1.2,1,2.2,2.3,2.2
	c1.2,0,2.2-0.9,2.3-2.2C49.4,14.6,49.4,14.6,49.4,14.5z"/>
<path class="st0" d="M64.2,9.5v9.4c0,3.3-2.6,4.7-5.2,4.7c-1.9,0.1-3.7-0.8-4.7-2.4l2.5-1.5c0.4,0.8,1.3,1.3,2.3,1.2
	c1.1,0.1,2.1-0.6,2.2-1.7c0-0.1,0-0.3,0-0.4V18c-0.7,0.9-1.8,1.3-2.9,1.3c-2.8-0.1-5-2.4-4.9-5.2c0.1-2.7,2.2-4.8,4.9-4.9
	c1.1-0.1,2.2,0.4,2.9,1.3v-1L64.2,9.5z M61.3,14.3c0.1-1.3-1-2.4-2.3-2.5c-1.3-0.1-2.4,1-2.5,2.3c-0.1,1.3,1,2.4,2.3,2.5
	c0,0,0.1,0,0.1,0c1.2,0.1,2.3-0.8,2.4-2.1C61.3,14.4,61.3,14.4,61.3,14.3z"/>
<path class="st0" d="M65.9,14.5c0-2.9,2.3-5.3,5.2-5.3s5.3,2.3,5.3,5.2s-2.3,5.3-5.2,5.3c0,0,0,0,0,0C68.3,19.7,65.9,17.5,65.9,14.5
	C65.9,14.6,65.9,14.5,65.9,14.5z M73.4,14.5c0-1.3-1.1-2.2-2.3-2.2c-1.3,0-2.2,1.1-2.2,2.3c0,1.2,1,2.2,2.3,2.2
	c1.2,0,2.2-0.9,2.3-2.2C73.4,14.6,73.4,14.6,73.4,14.5z"/>
<path class="st0" d="M77.8,6.9c0-1,0.8-1.8,1.8-1.8c1,0,1.8,0.8,1.8,1.8c0,1-0.8,1.8-1.8,1.8l0,0C78.6,8.7,77.8,7.9,77.8,6.9z
	 M78.1,9.5h3v9.9h-3L78.1,9.5z"/>
<path class="st0" d="M93.9,14.5c0.1,2.7-2,5.1-4.7,5.2c0,0,0,0,0,0c-1.1,0.1-2.2-0.4-2.9-1.2v4.9h-3V9.5h3v0.9
	C87,9.6,88,9.2,89.2,9.3C91.9,9.4,94,11.7,93.9,14.5C93.9,14.5,93.9,14.5,93.9,14.5z M90.9,14.5c0-1.3-1.1-2.3-2.4-2.3
	s-2.3,1.1-2.3,2.4c0,1.3,1.1,2.3,2.4,2.3c1.2,0.1,2.3-0.9,2.4-2.2C90.9,14.7,90.9,14.6,90.9,14.5z"/>
<path class="st0" d="M103.1,16.5c0,2.3-2,3.2-4.1,3.2c-1.8,0.2-3.5-0.8-4.3-2.4l2.6-1.5c0.2,0.7,0.9,1.2,1.7,1.2
	c0.7,0,1.1-0.2,1.1-0.6c0-1.1-4.9-0.5-4.9-3.9c0-2.2,1.8-3.2,3.9-3.2c1.6,0,3.1,0.8,3.9,2.1l-2.5,1.4c-0.2-0.5-0.7-0.9-1.3-0.9
	c-0.5,0-0.8,0.2-0.8,0.6C98.2,13.6,103.1,12.8,103.1,16.5z"/>
<path class="st0" d="M113.9,9.5v9.9h-3v-0.9c-0.7,0.8-1.7,1.3-2.8,1.2c-2,0-3.7-1.4-3.7-4.1V9.5h3v5.6c-0.1,0.9,0.6,1.7,1.5,1.8
	c0.1,0,0.2,0,0.3,0c1.1,0,1.8-0.6,1.8-2V9.5L113.9,9.5z"/>
<path class="st0" d="M130.9,13.4v6.1h-3v-5.8c0-1-0.5-1.6-1.4-1.6c-1,0-1.5,0.7-1.5,1.9v5.6h-3v-5.8c0-1-0.5-1.6-1.4-1.6
	c-1,0-1.5,0.7-1.5,1.9v5.6h-3V9.5h3v0.9c0.6-0.8,1.6-1.3,2.7-1.2c1-0.1,2,0.4,2.6,1.3c0.7-0.9,1.8-1.4,2.9-1.3
	C129.4,9.3,130.9,10.9,130.9,13.4z"/>
<circle class="st0" cx="133.4" cy="7.3" r="2.2"/>
</svg>
